<?xml version="1.0" encoding="utf-8"?>
<!-- Generator: Adobe Illustrator 27.3.1, SVG Export Plug-In . SVG Version: 6.00 Build 0)  -->
<svg version="1.1" id="Layer_1" xmlns="http://www.w3.org/2000/svg" xmlns:xlink="http://www.w3.org/1999/xlink" x="0px" y="0px"
	 viewBox="0 0 64 64" enable-background="new 0 0 64 64" xml:space="preserve">
<g>
	<path fill="#0EBDB1" d="M18.2109375,37.4082031C18.2973633,37.4692383,18.3989258,37.5,18.5,37.5
		s0.2026367-0.0307617,0.2890625-0.0917969C18.9111328,37.3212891,31,28.6000977,31,14.8999023C31,8.0625,25.3925781,2.5,18.5,2.5
		S6,8.0625,6,14.8999023C6,28.6000977,18.0888672,37.3212891,18.2109375,37.4082031z M18.5,3.5
		C24.8413086,3.5,30,8.6137695,30,14.8999023c0,12.0029297-9.6879883,20.0712891-11.5,21.4741211
		C16.6879883,34.9711914,7,26.902832,7,14.8999023C7,8.6137695,12.1586914,3.5,18.5,3.5z"/>
	<circle fill="#0EBDB1" cx="18.5" cy="14.5" r="5.5"/>
	<path fill="#0EBDB1" d="M57.5,23.5H32.9400024c-0.2800293,0-0.5,0.2199707-0.5,0.5c0,0.2799683,0.2199707,0.5,0.5,0.5H40V32
		c0,0.2799683,0.2199707,0.5,0.5,0.5H57v7h-7.5c-0.210022,0-0.4000244,0.1300049-0.4699707,0.3200073
		c-0.0700073,0.1999512-0.0200195,0.4199829,0.1399536,0.5599976L57,47.2299805v12.6013794L35.8452148,39.6381836
		C35.7524414,39.5493164,35.628418,39.5,35.5,39.5h-8c-0.2763672,0-0.5,0.2236328-0.5,0.5v20.5h-8V47
		c0-0.2800293-0.2199707-0.5-0.5-0.5H11V34.9099731c0-0.2799683-0.2199707-0.5-0.5-0.5s-0.5,0.2200317-0.5,0.5V61
		c0,0.2799683,0.2199707,0.5,0.5,0.5h47c0.144165,0,0.270874-0.0596924,0.3613892-0.15448
		c0.0001221-0.0001221,0.0003052-0.0001831,0.0004272-0.0003052c0.00177-0.0018311,0.0021973-0.0043945,0.0039673-0.0062866
		c0.041687-0.0450439,0.0752563-0.0968628,0.0979614-0.1554565c0.0132446-0.0336304,0.0149536-0.0690308,0.0206299-0.104248
		C57.9887085,61.0523682,58,61.0282593,58,61V24C58,23.7199707,57.7800293,23.5,57.5,23.5z M50.8300171,40.5H57v5.3900146
		L50.8300171,40.5z M28,40.5h7.2998047l20.9521484,20H38v-6h3.5c0.2763672,0,0.5-0.2236328,0.5-0.5s-0.2236328-0.5-0.5-0.5h-4
		c-0.2763672,0-0.5,0.2236328-0.5,0.5v6.5h-9V40.5z"/>
</g>
</svg>
