<?xml version="1.0" encoding="utf-8"?>
<!-- Generator: Adobe Illustrator 27.3.1, SVG Export Plug-In . SVG Version: 6.00 Build 0)  -->
<svg version="1.1" id="Layer_1" xmlns="http://www.w3.org/2000/svg" xmlns:xlink="http://www.w3.org/1999/xlink" x="0px" y="0px"
	 viewBox="0 0 64 64" enable-background="new 0 0 64 64" xml:space="preserve">
<g>
	<path fill="#0EBDB1" d="M57.2333908,47.2189941l-1.0820312-1.6821289L49.525383,35.2302246
		c-0.9990234-1.5546875-2.8896484-2.3461914-4.6982422-1.9731445l-10.6738281,2.2104492l-5.57617-5.9711914
		c-1.2441406-1.3325195-3.2607422-1.5844727-4.7949219-0.5981445c-1.7480469,1.1245117-2.2558594,3.4624023-1.1328125,5.2109375
		l9.0898438,14.1381836l-4.8417969-0.0224609c-0.0048828,0-0.0107422,0-0.0166016,0
		c-0.9277344,0-1.8007812,0.3598633-2.4589844,1.0136719c-0.6630859,0.6577148-1.0292969,1.534668-1.03125,2.4677734
		c-0.0048828,1.4672852,0.9189453,2.7900391,2.2978516,3.2910156l10.4169903,3.7866211
		c0.020813,0.0076904,0.0426025,0.0065918,0.0638428,0.0112915c1.2587891,1.7453003,3.2420044,2.7035522,5.2720947,2.7035522
		c1.203125,0,2.4199219-0.3330078,3.5048828-1.0307617l10.9345703-7.0302734
		c1.0107422-0.6494141,1.7080078-1.6542969,1.9638672-2.8291016C58.1005783,49.4343262,57.8828049,48.2302246,57.2333908,47.2189941
		z M24.3906193,51.7087402c0.0019531-0.6660156,0.2626953-1.2910156,0.7353516-1.7607422
		c0.4697266-0.4667969,1.0927734-0.7231445,1.7548828-0.7231445c0.0039062,0,0.0078125,0,0.0126953,0l5.7626934,0.0268555
		c0,0,0.0009766,0,0.0019531,0c0.1826172,0,0.3505859-0.0996094,0.4384766-0.2592773
		c0.0878906-0.1606445,0.0810547-0.3569336-0.0175781-0.5112305l-9.5878887-14.9130859
		c-0.8261719-1.284668-0.4521484-3.0024414,0.8320312-3.8286133c1.1279297-0.7250977,2.6083984-0.5390625,3.5234375,0.4394531
		l5.7675762,6.1762695c0.1191406,0.1269531,0.2939453,0.1855469,0.4667969,0.1484375l10.9492188-2.2670898
		c1.4042969-0.2949219,2.8759766,0.324707,3.6533203,1.534668l6.3554688,9.8857422L36.2138596,57.7595215l-10.1835918-3.7016602
		C25.0458927,53.6999512,24.3876896,52.7561035,24.3906193,51.7087402z"/>
	<path fill="#0EBDB1" d="M22.0419254,44.9329224c-0.0062256-0.0368042-0.0167847-0.0706177-0.0305786-0.1057129
		c-0.0118408-0.0316162-0.0255127-0.0610962-0.0438232-0.0900879c-0.0075684-0.0119629-0.0097046-0.0262451-0.0183105-0.0376587
		c-0.0114746-0.0151978-0.0282593-0.0228271-0.0410767-0.0363159c-0.0137329-0.0146484-0.0212402-0.03302-0.0370483-0.0462036
		c-0.0116577-0.0097046-0.0263062-0.0123291-0.0385742-0.020752c-0.0281372-0.0195923-0.0570068-0.0341797-0.0881348-0.0473633
		c-0.0285645-0.012146-0.0560913-0.0229492-0.0859375-0.02948c-0.0328369-0.0073853-0.0646973-0.0094604-0.0983887-0.0100708
		c-0.0306396-0.0005493-0.0596924-0.0001221-0.0899048,0.0048218c-0.0321045,0.005188-0.0618896,0.0150757-0.0928345,0.0266724
		c-0.0310669,0.0115356-0.0598755,0.0245972-0.0884399,0.0424194c-0.0128174,0.0079346-0.0275879,0.0098267-0.039856,0.019104
		c-0.0162354,0.0123291-0.0245361,0.0301514-0.0388184,0.0439453c-0.0136108,0.0130005-0.0308838,0.0198364-0.0432129,0.034668
		l-4.6162109,5.5394287l-4.6162119-5.5394287c-0.0097656-0.0116577-0.0235596-0.0167236-0.0340576-0.0272827
		c-0.0112305-0.0114136-0.0168457-0.0261841-0.0294189-0.0366821c-0.0150757-0.0124512-0.0335693-0.0162964-0.0496216-0.0267334
		c-0.0282593-0.0186157-0.0560303-0.0344238-0.086853-0.0466919c-0.0291138-0.0115356-0.0574951-0.0195312-0.0878296-0.0253906
		c-0.0331421-0.0065918-0.0648804-0.0102539-0.0986328-0.0101318c-0.0301514,0.0001831-0.0584717,0.0036011-0.0880737,0.0090942
		c-0.0332031,0.0061035-0.0643311,0.0147095-0.0960693,0.0276489c-0.0292358,0.0118408-0.055603,0.0270996-0.0825195,0.0446167
		c-0.0164795,0.0107422-0.0355835,0.0147095-0.0510254,0.0275879c-0.0126343,0.010498-0.0182495,0.0253906-0.029541,0.0368042
		c-0.010498,0.010498-0.024231,0.015564-0.0339355,0.0271606l-4.1162109,4.9394531V3.5012207h40v26.5
		c0,0.2763672,0.2236328,0.5,0.5,0.5s0.5-0.2236328,0.5-0.5v-27c0-0.2763672-0.2236328-0.5-0.5-0.5h-41
		c-0.2763672,0-0.5,0.2236328-0.5,0.5v48c0,0.0079956,0.0041504,0.0146484,0.0045166,0.022522
		c0.0015259,0.0350342,0.0117188,0.067627,0.0205078,0.1016235c0.0077515,0.0296631,0.0123901,0.0595703,0.0251465,0.086731
		c0.0125732,0.0270996,0.0325928,0.0496826,0.0501709,0.0744629c0.0205078,0.0286865,0.0391235,0.057373,0.0650635,0.0811157
		c0.0057983,0.0053101,0.0081787,0.0127563,0.0142822,0.0178223c0.0239258,0.0198364,0.0518799,0.0296631,0.0780029,0.0443726
		c0.0206909,0.0117188,0.0388184,0.026062,0.0612183,0.0348511c0.0585327,0.0228271,0.1193848,0.036499,0.1810913,0.036499
		c0.0720825,0,0.1396484-0.0164795,0.2015381-0.0438843c0.0149536-0.0065918,0.0263672-0.0192871,0.0407104-0.0274048
		c0.0467529-0.0265503,0.0899658-0.0566406,0.1256714-0.0962524c0.0046387-0.005127,0.0114136-0.0067749,0.0158691-0.012146
		l4.6162109-5.5394287l4.6162119,5.5394287c0.0088501,0.0106812,0.0219727,0.0144043,0.0315552,0.0241699
		c0.012085,0.0124512,0.0183105,0.0284424,0.0319214,0.0397949c0.0239258,0.0198364,0.0518799,0.0297241,0.078064,0.0444336
		c0.0180054,0.0101318,0.0338745,0.0223389,0.0528564,0.0300903c0.0610962,0.0251465,0.1246338,0.0411987,0.1893921,0.0411987
		s0.1282959-0.0160522,0.1893921-0.0411987c0.0189819-0.0077515,0.0348511-0.0199585,0.0528564-0.0300903
		c0.0261841-0.0147095,0.0541382-0.0245972,0.078064-0.0444336c0.0136108-0.0113525,0.0198975-0.0274048,0.0319824-0.039856
		c0.0095215-0.0097046,0.022644-0.0134277,0.0314941-0.0241089l4.9118042-5.894165
		c0.0064697-0.0044556,0.0144653-0.0024414,0.020813-0.0072021c0.1375122-0.1037598,0.1912231-0.2719727,0.1786499-0.4377441
		C22.0452213,44.9655151,22.0442448,44.949646,22.0419254,44.9329224z"/>
	<path fill="#0EBDB1" d="M20.0507755,9.0012207c0-0.2763672-0.2236328-0.5-0.5-0.5h-7.000001c-0.2763672,0-0.5,0.2236328-0.5,0.5v7
		c0,0.2763672,0.2236328,0.5,0.5,0.5h7.000001c0.2763672,0,0.5-0.2236328,0.5-0.5V9.0012207z M19.0507755,15.5012207h-6.000001v-6
		h6.000001V15.5012207z"/>
	<path fill="#0EBDB1" d="M24.5507755,11.5012207h6c0.2763672,0,0.5-0.2236328,0.5-0.5s-0.2236328-0.5-0.5-0.5h-6
		c-0.2763672,0-0.5,0.2236328-0.5,0.5S24.2744083,11.5012207,24.5507755,11.5012207z"/>
	<path fill="#0EBDB1" d="M39.0507736,15.0012207c0-0.2763672-0.2236328-0.5-0.5-0.5H24.5507755c-0.2763672,0-0.5,0.2236328-0.5,0.5
		s0.2236328,0.5,0.5,0.5h13.9999981C38.8271408,15.5012207,39.0507736,15.2775879,39.0507736,15.0012207z"/>
	<path fill="#0EBDB1" d="M20.0507755,22.0012207c0-0.2763672-0.2236328-0.5-0.5-0.5h-7.000001c-0.2763672,0-0.5,0.2236328-0.5,0.5v7
		c0,0.2763672,0.2236328,0.5,0.5,0.5h7.000001c0.2763672,0,0.5-0.2236328,0.5-0.5V22.0012207z"/>
	<path fill="#0EBDB1" d="M24.5507755,23.5012207c-0.2763672,0-0.5,0.2236328-0.5,0.5s0.2236328,0.5,0.5,0.5h6
		c0.2763672,0,0.5-0.2236328,0.5-0.5s-0.2236328-0.5-0.5-0.5H24.5507755z"/>
	<path fill="#0EBDB1" d="M19.5507755,33.5012207h-7.000001c-0.2763672,0-0.5,0.2236328-0.5,0.5v7c0,0.2763672,0.2236328,0.5,0.5,0.5
		h7.000001c0.2763672,0,0.5-0.2236328,0.5-0.5v-7C20.0507755,33.7248535,19.8271427,33.5012207,19.5507755,33.5012207z
		 M19.0507755,40.5012207h-6.000001v-6h6.000001V40.5012207z"/>
</g>
</svg>
