<?xml version="1.0" encoding="utf-8"?>
<!-- Generator: Adobe Illustrator 27.3.1, SVG Export Plug-In . SVG Version: 6.00 Build 0)  -->
<svg version="1.1" id="Layer_1" xmlns="http://www.w3.org/2000/svg" xmlns:xlink="http://www.w3.org/1999/xlink" x="0px" y="0px"
	 viewBox="0 0 64 64" enable-background="new 0 0 64 64" xml:space="preserve">
<path fill="#0EBDB1" d="M33.5,18.9791756c0-8.546876-6.953125-15.500001-15.5-15.500001s-15.5,6.953125-15.5,15.500001
	s6.953125,15.5,15.5,15.5S33.5,27.5260506,33.5,18.9791756z M3.5,18.9791756c0-7.9951181,6.5048828-14.500001,14.5-14.500001
	s14.5,6.5048828,14.5,14.500001s-6.5048828,14.5-14.5,14.5S3.5,26.9742928,3.5,18.9791756z"/>
<path fill="#0EBDB1" d="M61,19.5h-2.5v-4.8696289c0-3.6259766-2.1748047-6.8388672-5.5419922-8.1860352
	c-3.1171875-1.2475586-6.6191406-0.637207-9.1318359,1.5966797L38.8102417,12.5h-2.7907104c-0.2763672,0-0.5,0.2236328-0.5,0.5
	s0.2236328,0.5,0.5,0.5H41c1.3789062,0,2.5,1.121582,2.5,2.5v3.5H43h-6.0195312c-0.2763672,0-0.5,0.2236328-0.5,0.5
	s0.2236328,0.5,0.5,0.5H42.5v13H42H32h-1h-1.3603516c-0.2763672,0-0.5,0.2236328-0.5,0.5s0.2236328,0.5,0.5,0.5H31h0.5v25h-16
	V37.7597656c0-0.2763672-0.2236328-0.5-0.5-0.5s-0.5,0.2236328-0.5,0.5V60c0,0.2763672,0.2236328,0.5,0.5,0.5h17h10h17
	c0.2763672,0,0.5-0.2236328,0.5-0.5V34.5H61c0.2763672,0,0.5-0.2236328,0.5-0.5V20C61.5,19.7236328,61.2763672,19.5,61,19.5z
	 M41,12.5h-0.6853027l4.1755371-3.7119141c2.2275391-1.9790039,5.3300781-2.5219727,8.0966797-1.4150391
	C55.5712891,8.5668945,57.5,11.4160156,57.5,14.6303711V19.5h-13V16C44.5,14.0703125,42.9296875,12.5,41,12.5z M58.5,59.5h-16v-25
	H43h15.5V59.5z M60.5,33.5H59H43.5v-13H44h16.5V33.5z"/>
<path fill="#0EBDB1" d="M24.3309708,24.3698006c-0.2587891-0.0683594-0.5341797,0.0839844-0.6132812,0.34375
	c-0.0048828,0.0175781-0.5820312,1.765625-4.8515625,1.765625c-3.2322989,0-4.7660513-1.7949829-5.4365835-4h6.5039663
	c0.2763672,0,0.5-0.2236328,0.5-0.5s-0.2236328-0.5-0.5-0.5h-6.7500601c-0.1554565-0.8280029-0.2167358-1.6824341-0.2167358-2.5
	s0.0612793-1.6719971,0.2167358-2.5h6.7500601c0.2763672,0,0.5-0.2236328,0.5-0.500001c0-0.2763672-0.2236328-0.5-0.5-0.5
	h-6.5039663c0.6705322-2.2050171,2.2042847-4,5.4365835-4c4.2695312,0,4.8466797,1.7480469,4.8486328,1.7543945
	c0.0664062,0.2675781,0.3330078,0.4311523,0.6064453,0.3637695c0.2675781-0.0668945,0.4306641-0.3383789,0.3642578-0.605957
	c-0.0263672-0.1025391-0.6875-2.512207-5.8193359-2.512207c-3.3845816,0-5.6084585,1.7510376-6.480773,5H9.7997217
	c-0.2763672,0-0.5,0.2236328-0.5,0.5c0,0.2763681,0.2236328,0.500001,0.5,0.500001h2.3710327
	c-0.1311035,0.7670898-0.2040405,1.5966187-0.2040405,2.5s0.072937,1.7329102,0.2040405,2.5H9.7997217
	c-0.2763672,0-0.5,0.2236328-0.5,0.5s0.2236328,0.5,0.5,0.5h2.5856323c0.8723145,3.2489624,3.0961914,5,6.480773,5
	c5.1318359,0,5.7929688-2.409668,5.8193359-2.512207C24.7508926,24.7037849,24.5926895,24.4420662,24.3309708,24.3698006z"/>
</svg>
