<?xml version="1.0" encoding="utf-8"?>
<!-- Generator: Adobe Illustrator 27.3.1, SVG Export Plug-In . SVG Version: 6.00 Build 0)  -->
<svg version="1.1" id="Layer_1" xmlns="http://www.w3.org/2000/svg" xmlns:xlink="http://www.w3.org/1999/xlink" x="0px" y="0px"
	 viewBox="0 0 64 64" enable-background="new 0 0 64 64" xml:space="preserve">
<g>
	<path fill="#0EBDB1" d="M31.7587891,28.4994507h0.4824219C37.8979492,28.4994507,42.5,23.8973999,42.5,18.2406616v-5.4824219
		c0-5.6567388-4.6020508-10.2587891-10.2587891-10.2587891h-0.4824219C26.1020508,2.4994502,21.5,7.101501,21.5,12.7582397
		v5.4824219C21.5,23.8973999,26.1020508,28.4994507,31.7587891,28.4994507z M22.5,12.7582397
		c0-5.1054692,4.1533203-9.2587891,9.2587891-9.2587891h0.4824219c5.1054688,0,9.2587891,4.1533203,9.2587891,9.2587891v5.4824219
		c0,5.1054688-4.1533203,9.2587891-9.2587891,9.2587891h-0.4824219c-5.1054688,0-9.2587891-4.1533203-9.2587891-9.2587891
		V12.7582397z"/>
	<path fill="#0EBDB1" d="M51.7939453,40.5492554c-0.8378906-3.6308594-3.7402344-6.4487305-7.3935547-7.1796875
		l-2.2631836-0.4526367c-1.3862305-0.2768555-2.8046875-0.4174805-4.2167969-0.4174805H26.0795898
		c-1.4121094,0-2.8305664,0.140625-4.2167969,0.4174805l-2.2631836,0.4526367
		c-3.6533203,0.730957-6.5556641,3.5488281-7.3935547,7.1796875L7.5126953,60.887146
		c-0.0620117,0.269043,0.105957,0.5375977,0.375,0.5996094c0.2685547,0.0649414,0.5371094-0.105957,0.5996094-0.375
		l4.6933594-20.3378906c0.7495117-3.2480469,3.3461914-5.7700195,6.6152344-6.4238281l2.2631836-0.4526367
		c1.2037964-0.2406616,2.434082-0.3585205,3.661438-0.380188l0.5841675,1.8250122
		C27.1000977,37.8285522,29.3886719,39.4994507,32,39.4994507s4.8999023-1.6708984,5.6953125-4.1572266l0.5841675-1.8250122
		c1.227356,0.0216675,2.4576416,0.1395264,3.661438,0.380188l2.2631836,0.4526367
		c3.269043,0.6538086,5.8657227,3.1757812,6.6152344,6.4238281l4.6933594,20.3378906
		c0.0537109,0.2314453,0.2592773,0.3876953,0.4868164,0.3876953c0.0371094,0,0.0751953-0.0039062,0.112793-0.0126953
		c0.269043-0.0620117,0.4370117-0.3305664,0.375-0.5996094L51.7939453,40.5492554z"/>
	<path fill="#0EBDB1" d="M19.0708008,53.5043335c-0.2695312-0.0341797-0.5268555,0.1513672-0.565918,0.4243164l-1,7
		c-0.0390625,0.2734375,0.1508789,0.5268555,0.4243164,0.565918c0.0239258,0.003418,0.0478516,0.0048828,0.0712891,0.0048828
		c0.2451172,0,0.4589844-0.1796875,0.4946289-0.4291992l1-7C19.5341797,53.796814,19.3442383,53.543396,19.0708008,53.5043335z"/>
	<path fill="#0EBDB1" d="M44.9291992,53.5043335c-0.2734375,0.0390625-0.4633789,0.2924805-0.4243164,0.565918l1,7
		c0.0356445,0.2495117,0.2495117,0.4291992,0.4946289,0.4291992c0.0234375,0,0.0473633-0.0014648,0.0712891-0.0048828
		c0.2734375-0.0390625,0.4633789-0.2924805,0.4243164-0.565918l-1-7
		C45.4555664,53.6547241,45.199707,53.4657593,44.9291992,53.5043335z"/>
	<path fill="#0EBDB1" d="M44.3081055,5.1947627c-0.2514648-0.1157227-0.5478516-0.0043945-0.6625977,0.246582
		s-0.0048828,0.5478516,0.246582,0.6625977C53.980957,10.7240601,60.5,20.8886108,60.5,31.9994507
		c0,5.1899414-1.4067383,10.2705078-4.0683594,14.6923828c-0.1425781,0.2363281-0.0664062,0.5439453,0.1704102,0.6860352
		c0.0805664,0.0488281,0.1694336,0.0717773,0.2573242,0.0717773c0.1694336,0,0.3349609-0.0864258,0.4287109-0.2421875
		C60.043457,42.6298218,61.5,37.3710327,61.5,31.9994507C61.5,20.4989624,54.7519531,9.977478,44.3081055,5.1947627z"/>
	<path fill="#0EBDB1" d="M7.5683594,46.6918335C4.9067383,42.2699585,3.5,37.1893921,3.5,31.9994507
		c0-11.1108398,6.519043-21.2753906,16.6079102-25.8955078c0.2514648-0.1147461,0.3613281-0.4116211,0.246582-0.6625977
		s-0.4116211-0.3632812-0.6625977-0.246582C9.2480469,9.977478,2.5,20.4989624,2.5,31.9994507
		c0,5.371582,1.456543,10.6303711,4.2119141,15.2080078c0.09375,0.1557617,0.2592773,0.2421875,0.4287109,0.2421875
		c0.0878906,0,0.1767578-0.0229492,0.2573242-0.0717773C7.6347656,47.2357788,7.7109375,46.9281616,7.5683594,46.6918335z"/>
	<path fill="#0EBDB1" d="M43,45.4994507h-6c-0.2763672,0-0.5,0.2236328-0.5,0.5s0.2236328,0.5,0.5,0.5h6
		c0.2763672,0,0.5-0.2236328,0.5-0.5S43.2763672,45.4994507,43,45.4994507z"/>
</g>
</svg>
