<?xml version="1.0" encoding="utf-8"?>
<!-- Generator: Adobe Illustrator 27.3.1, SVG Export Plug-In . SVG Version: 6.00 Build 0)  -->
<svg version="1.1" id="Layer_1" xmlns="http://www.w3.org/2000/svg" xmlns:xlink="http://www.w3.org/1999/xlink" x="0px" y="0px"
	 viewBox="0 0 64 64" enable-background="new 0 0 64 64" xml:space="preserve">
<g>
	<path fill="#0EBDB1" d="M25.4746094,44.1533203l-12.4091797-1.6489258
		c-0.2558594-0.0366211-0.5244141,0.1552734-0.5615234,0.4296875c-0.0361328,0.2739258,0.15625,0.5253906,0.4306641,0.5615234
		l12.3984375,1.6474609c1.0771484,0.1660156,1.8583984,1.0766602,1.8583984,2.1655273
		C27.1914062,48.5170898,26.2080078,49.5,25,49.5H11c-4.1357422,0-7.5-3.3642578-7.5-7.5v-7.0556641
		c0-2.859375,1.5888672-5.4296875,4.1455078-6.7080078l3.578125-1.7890625
		c0.2470703-0.1235352,0.3466797-0.4238281,0.2236328-0.6708984c-0.1240234-0.2475586-0.4228516-0.3461914-0.6708984-0.2236328
		l-3.578125,1.7890625C4.2998047,28.7910156,2.5,31.7041016,2.5,34.9443359V42c0,4.6870117,3.8134766,8.5,8.5,8.5h14
		c1.7597656,0,3.1914062-1.4316406,3.1914062-3.1914062C28.1914062,45.7226562,27.0537109,44.3964844,25.4746094,44.1533203z"/>
	<path fill="#0EBDB1" d="M46,30.5c3.5839844,0,6.5-2.9160156,6.5-6.5v-3c0-3.5839844-2.9160156-6.5-6.5-6.5s-6.5,2.9160156-6.5,6.5
		v3C39.5,27.5839844,42.4160156,30.5,46,30.5z M40.5,21c0-3.0327148,2.4677734-5.5,5.5-5.5s5.5,2.4672852,5.5,5.5v3
		c0,3.0327148-2.4677734,5.5-5.5,5.5s-5.5-2.4672852-5.5-5.5V21z"/>
	<path fill="#0EBDB1" d="M18,25.5c3.5839844,0,6.5-2.9160156,6.5-6.5v-2c0-3.5839844-2.9160156-6.5-6.5-6.5s-6.5,2.9160156-6.5,6.5
		v2C11.5,22.5839844,14.4160156,25.5,18,25.5z M12.5,17c0-3.0327148,2.4677734-5.5,5.5-5.5s5.5,2.4672852,5.5,5.5v2
		c0,3.0327148-2.4677734,5.5-5.5,5.5s-5.5-2.4672852-5.5-5.5V17z"/>
	<path fill="#0EBDB1" d="M37.6513672,28.2558594l-0.6582031,0.2197266c-1.5906372,0.5287476-2.9622192,1.453186-4.0336304,2.6367798
		l-0.5405884-0.7202759c-1.3759766-1.8344727-3.2285156-3.2539062-5.3574219-4.105957l-1.8759766-0.7504883
		c-0.2558594-0.1025391-0.546875,0.0224609-0.6494141,0.2788086s0.0214844,0.5473633,0.2783203,0.6499023l1.8759766,0.7504883
		c1.9589844,0.7836914,3.6630859,2.0898438,4.9277344,3.7773438l0.6878052,0.916687
		C31.1588745,33.4923706,30.5,35.4306641,30.5,37.4902344V50c0,0.2763672,0.2236328,0.5,0.5,0.5h4.75
		c0.2763672,0,0.5-0.2236328,0.5-0.5s-0.2236328-0.5-0.5-0.5H31.5V37.4902344c0-1.8654785,0.6082153-3.6165771,1.6578979-5.0429688
		c0.0477905-0.0166016,0.0993652-0.0154419,0.1419067-0.0473633c0.1164551-0.0873413,0.1803589-0.2160034,0.1939087-0.3504028
		c0.9868774-1.1817017,2.2798462-2.1150513,3.8148804-2.6251831l0.6591797-0.2202148
		c0.2617188-0.0874023,0.4033203-0.3706055,0.3164062-0.6323242C38.1962891,28.3100586,37.9130859,28.168457,37.6513672,28.2558594z
		"/>
	<path fill="#0EBDB1" d="M55.0078125,28.4760742l-0.6591797-0.2202148c-0.2617188-0.0864258-0.5449219,0.0541992-0.6328125,0.315918
		c-0.0869141,0.2617188,0.0546875,0.5449219,0.3164062,0.6323242l0.6601562,0.2207031
		C58.1660156,30.5791016,60.5,33.8208008,60.5,37.4902344V49.5h-4.25c-0.2763672,0-0.5,0.2236328-0.5,0.5s0.2236328,0.5,0.5,0.5H61
		c0.2763672,0,0.5-0.2236328,0.5-0.5V37.4902344C61.5,33.3891602,58.890625,29.7666016,55.0078125,28.4760742z"/>
	<path fill="#0EBDB1" d="M46,38.5c-4.1357422,0-7.5,3.3642578-7.5,7.5s3.3642578,7.5,7.5,7.5s7.5-3.3642578,7.5-7.5
		S50.1357422,38.5,46,38.5z M49,46.75h-2.25V49c0,0.4099731-0.3400269,0.75-0.75,0.75s-0.75-0.3400269-0.75-0.75v-2.25H43
		c-0.4099731,0-0.75-0.3400269-0.75-0.75c0-0.4100342,0.3400269-0.75,0.75-0.75h2.25V43c0-0.4100342,0.3400269-0.75,0.75-0.75
		s0.75,0.3399658,0.75,0.75v2.25H49c0.4099731,0,0.75,0.3399658,0.75,0.75C49.75,46.4099731,49.4099731,46.75,49,46.75z"/>
</g>
</svg>
